<?xml version="1.0" encoding="UTF-8" standalone="no"?>
<!-- Created with Inkscape (http://www.inkscape.org/) -->

<svg
   width="121.92mm"
   height="128.5mm"
   viewBox="0 0 121.92001 128.50002"
   version="1.1"
   id="svg8"
   inkscape:version="1.3.1 (9b9bdc1480, 2023-11-25, custom)"
   sodipodi:docname="BD_synCret.svg"
   xml:space="preserve"
   xmlns:inkscape="http://www.inkscape.org/namespaces/inkscape"
   xmlns:sodipodi="http://sodipodi.sourceforge.net/DTD/sodipodi-0.dtd"
   xmlns="http://www.w3.org/2000/svg"
   xmlns:svg="http://www.w3.org/2000/svg"
   xmlns:rdf="http://www.w3.org/1999/02/22-rdf-syntax-ns#"
   xmlns:cc="http://creativecommons.org/ns#"
   xmlns:dc="http://purl.org/dc/elements/1.1/"><defs
     id="defs2" /><sodipodi:namedview
     id="base"
     pagecolor="#ffffff"
     bordercolor="#666666"
     borderopacity="1.0"
     inkscape:pageopacity="0.0"
     inkscape:pageshadow="2"
     inkscape:zoom="1.8030938"
     inkscape:cx="193.55621"
     inkscape:cy="238.2017"
     inkscape:document-units="mm"
     inkscape:current-layer="layer1"
     showgrid="false"
     units="mm"
     inkscape:snap-bbox="true"
     inkscape:snap-page="true"
     inkscape:bbox-nodes="false"
     inkscape:snap-bbox-edge-midpoints="false"
     inkscape:window-width="1920"
     inkscape:window-height="1131"
     inkscape:window-x="0"
     inkscape:window-y="0"
     inkscape:window-maximized="1"
     inkscape:snap-bbox-midpoints="true"
     inkscape:snap-nodes="false"
     inkscape:showpageshadow="2"
     inkscape:pagecheckerboard="0"
     inkscape:deskcolor="#d1d1d1" /><metadata
     id="metadata5"><rdf:RDF><cc:Work
         rdf:about=""><dc:format>image/svg+xml</dc:format><dc:type
           rdf:resource="http://purl.org/dc/dcmitype/StillImage" /></cc:Work></rdf:RDF></metadata><g
     inkscape:label="Layer 1"
     inkscape:groupmode="layer"
     id="layer1"
     transform="translate(0,-168.49998)"
     style="display:inline"><rect
       style="display:inline;opacity:1;vector-effect:none;fill:#0f2731;fill-opacity:1;fill-rule:evenodd;stroke:none;stroke-width:1.29872;stroke-linecap:butt;stroke-linejoin:miter;stroke-miterlimit:4;stroke-dasharray:none;stroke-dashoffset:0;stroke-opacity:1;paint-order:normal"
       id="rect420"
       width="121.92"
       height="128.5"
       x="-7.1054274e-15"
       y="168.49998" /><rect
       style="display:inline;fill:#64889e;fill-opacity:1;stroke-width:0.264583"
       id="rect5"
       width="104.79205"
       height="15.59868"
       x="8.7306662"
       y="271.54678" /><path
       d="m 9.0372194,256.8162 q -0.085153,0 -0.16463,-0.0511 -0.079477,-0.0511 -0.079477,-0.13625 0,-0.0624 0.045415,-0.10786 0.039738,-0.0454 0.096507,-0.0454 0.045415,0 0.085153,0.0341 0.028384,0.017 0.028384,0.0624 0,0.0114 -0.011354,0.0341 h -0.00568 q 0.034061,0 0.085153,-0.0397 0.051092,-0.0397 0.051092,-0.10218 V 254.8747 H 8.730667 v -0.36332 q 0.022708,-0.0454 0.056769,-0.0681 0.039738,-0.0341 0.079477,-0.0341 0.1078611,0 0.1078611,0.10219 0,0.10786 -0.085154,0.10786 v 0.017 q 0.1419224,0 0.2668141,-0.0965 0.113538,-0.0965 0.1305687,-0.26113 h 0.4200903 v 2.1856 q 0,0.0625 0.039738,0.10218 0.051092,0.0397 0.039738,0.0397 0.056769,0.0284 0.039738,0.017 -0.011354,-0.0341 -0.011354,-0.0511 0,-0.0454 0.034061,-0.0624 0.028384,-0.0341 0.0738,-0.0341 0.062446,0 0.1078607,0.0397 0.04542,0.0397 0.04542,0.0852 0,0.0908 -0.0738,0.15327 -0.0738,0.0624 -0.1646302,0.0624 H 9.0372194 Z m 2.7703166,-0.0511 -0.834503,-2.37862 h 0.544982 l 0.562012,1.60088 0.56769,-1.60088 h 0.544982 l -0.834504,2.37862 z m 1.697387,0.0227 1.4987,-3.12229 h 0.56769 l -1.544116,3.15068 h -0.522274 z m 2.452413,-1.37948 q 0,-0.10219 0.05677,-0.18166 0.05677,-0.0795 0.1476,-0.13057 0.09083,-0.0568 0.210045,-0.0851 0.124892,-0.0284 0.25546,-0.0284 h 0.380352 q 0.130569,0 0.249784,0.0284 0.119215,0.0284 0.210045,0.0851 0.09651,0.0511 0.147599,0.13057 0.05677,0.0795 0.05677,0.18166 v 0.93101 q 0,0.10218 -0.05677,0.18166 -0.05109,0.0795 -0.147599,0.13625 -0.09083,0.0511 -0.210045,0.0795 -0.119215,0.0284 -0.249784,0.0284 h -0.380352 q -0.130568,0 -0.25546,-0.0284 -0.119215,-0.0284 -0.210045,-0.0795 -0.09083,-0.0568 -0.1476,-0.13625 -0.05677,-0.0795 -0.05677,-0.18166 z m 1.16944,0.0511 q 0,-0.0795 -0.06245,-0.11921 -0.06245,-0.0397 -0.16463,-0.0397 h -0.16463 q -0.107861,0 -0.170307,0.0397 -0.06245,0.0397 -0.06245,0.11921 v 0.82883 q 0,0.0795 0.06245,0.11921 0.06245,0.0397 0.170307,0.0397 h 0.16463 q 0.102184,0 0.16463,-0.0397 0.06245,-0.0397 0.06245,-0.11921 z m 0.953713,-0.0511 q 0,-0.10219 0.05677,-0.18166 0.05677,-0.0795 0.147599,-0.13057 0.09083,-0.0568 0.210046,-0.0851 0.124891,-0.0284 0.25546,-0.0284 h 0.380352 q 0.130569,0 0.249784,0.0284 0.119214,0.0284 0.210045,0.0851 0.09651,0.0511 0.147599,0.13057 0.05677,0.0795 0.05677,0.18166 v 0.18166 H 19.24993 v -0.13057 q 0,-0.0795 -0.06245,-0.11921 -0.06245,-0.0397 -0.16463,-0.0397 h -0.16463 q -0.107861,0 -0.170307,0.0397 -0.06245,0.0397 -0.06245,0.11921 v 0.82883 q 0,0.0795 0.06245,0.11921 0.06245,0.0397 0.170307,0.0397 h 0.16463 q 0.102184,0 0.16463,-0.0397 0.06245,-0.0397 0.06245,-0.11921 v -0.12489 h 0.544982 v 0.17598 q 0,0.10218 -0.05677,0.18166 -0.05109,0.0795 -0.147599,0.13625 -0.09083,0.0511 -0.210045,0.0795 -0.119215,0.0284 -0.249784,0.0284 h -0.380352 q -0.130569,0 -0.25546,-0.0284 -0.119215,-0.0284 -0.210046,-0.0795 -0.09083,-0.0568 -0.147599,-0.13625 -0.05677,-0.0795 -0.05677,-0.18166 z m 3.26421,-0.42009 v 0.3179 h -0.346291 v 0.98211 q 0,0.0795 0.05677,0.11921 0.06245,0.0397 0.170307,0.0397 h 0.141923 v 0.31791 h -0.249784 q -0.130568,0 -0.25546,-0.0284 -0.119215,-0.0284 -0.210045,-0.0795 -0.09083,-0.0568 -0.1476,-0.13625 -0.05677,-0.0795 -0.05677,-0.18166 v -1.0332 h -0.32926 v -0.3179 h 0.32926 v -0.40306 h 0.550659 v 0.40306 z"
       id="text4"
       style="font-size:4.9389px;font-family:Dhurjati;-inkscape-font-specification:'Dhurjati, Normal';fill:#ffffff;stroke-width:0.264583"
       aria-label="1V/oct" /><path
       d="m 10.851769,283.81082 q 0,-0.10218 0.05677,-0.18166 0.05677,-0.0795 0.1476,-0.13057 0.09083,-0.0568 0.210045,-0.0851 0.124892,-0.0284 0.25546,-0.0284 h 0.465506 q 0.130568,0 0.249783,0.0284 0.124892,0.0284 0.215722,0.0851 0.09083,0.0511 0.1476,0.13057 0.05677,0.0795 0.05677,0.18166 v 1.52708 q 0,0.10219 -0.05677,0.18167 -0.05677,0.0795 -0.1476,0.13624 -0.09083,0.0511 -0.215722,0.0795 -0.119215,0.0284 -0.249783,0.0284 h -0.465506 q -0.130568,0 -0.25546,-0.0284 -0.119215,-0.0284 -0.210045,-0.0795 -0.09083,-0.0568 -0.1476,-0.13624 -0.05677,-0.0795 -0.05677,-0.18167 z m 1.254594,0.0511 q 0,-0.0795 -0.06245,-0.11921 -0.05677,-0.0397 -0.16463,-0.0397 h -0.249784 q -0.107861,0 -0.170307,0.0397 -0.06245,0.0397 -0.06245,0.11921 v 1.4249 q 0,0.0795 0.06245,0.11922 0.06245,0.0397 0.170307,0.0397 h 0.249784 q 0.107861,0 0.16463,-0.0397 0.06245,-0.0397 0.06245,-0.11922 z m 2.225336,0.12489 h 0.544982 v 1.77687 h -0.544982 v -0.10786 q -0.06245,0.0454 -0.16463,0.0795 -0.09651,0.0284 -0.198692,0.0284 h -0.204368 q -0.130569,0 -0.25546,-0.0284 -0.119215,-0.0284 -0.210046,-0.0795 -0.09083,-0.0568 -0.147599,-0.13624 -0.05677,-0.0795 -0.05677,-0.18167 v -1.3511 h 0.544982 v 1.30001 q 0,0.0795 0.06245,0.11922 0.06245,0.0397 0.170307,0.0397 h 0.141922 q 0.06245,0 0.119215,-0.017 0.05677,-0.017 0.102184,-0.0454 0.04542,-0.0341 0.06812,-0.0681 0.02839,-0.0397 0.02839,-0.0852 z m 2.106124,0 v 0.31791 h -0.34629 v 0.9821 q 0,0.0795 0.05677,0.11922 0.06245,0.0397 0.170307,0.0397 h 0.141922 v 0.3179 h -0.249783 q -0.130569,0 -0.255461,-0.0284 -0.119215,-0.0284 -0.210045,-0.0795 -0.09083,-0.0568 -0.147599,-0.13624 -0.05677,-0.0795 -0.05677,-0.18167 v -1.03319 h -0.32926 v -0.31791 h 0.32926 v -0.40306 h 0.550659 v 0.40306 z m 3.190409,1.77687 h -1.62927 v -2.37862 h 0.544983 v 2.06072 h 1.084287 z"
       id="text4-3"
       style="font-size:4.9389px;font-family:Dhurjati;-inkscape-font-specification:'Dhurjati, Normal';fill:#ffffff;stroke-width:0.264583"
       aria-label="Out L" /><path
       d="m 26.091767,283.81082 q 0,-0.10218 0.05677,-0.18166 0.05677,-0.0795 0.1476,-0.13057 0.09083,-0.0568 0.210045,-0.0851 0.124892,-0.0284 0.25546,-0.0284 h 0.465506 q 0.130568,0 0.249783,0.0284 0.124892,0.0284 0.215722,0.0851 0.09083,0.0511 0.147599,0.13057 0.05677,0.0795 0.05677,0.18166 v 1.52708 q 0,0.10219 -0.05677,0.18167 -0.05677,0.0795 -0.147599,0.13624 -0.09083,0.0511 -0.215722,0.0795 -0.119215,0.0284 -0.249783,0.0284 h -0.465506 q -0.130568,0 -0.25546,-0.0284 -0.119215,-0.0284 -0.210045,-0.0795 -0.09083,-0.0568 -0.1476,-0.13624 -0.05677,-0.0795 -0.05677,-0.18167 z m 1.254594,0.0511 q 0,-0.0795 -0.06245,-0.11921 -0.05677,-0.0397 -0.16463,-0.0397 h -0.249784 q -0.107861,0 -0.170307,0.0397 -0.06245,0.0397 -0.06245,0.11921 v 1.4249 q 0,0.0795 0.06245,0.11922 0.06245,0.0397 0.170307,0.0397 h 0.249784 q 0.107861,0 0.16463,-0.0397 0.06245,-0.0397 0.06245,-0.11922 z m 2.225336,0.12489 h 0.544982 v 1.77687 h -0.544982 v -0.10786 q -0.06245,0.0454 -0.16463,0.0795 -0.09651,0.0284 -0.198691,0.0284 h -0.204368 q -0.130569,0 -0.255461,-0.0284 -0.119214,-0.0284 -0.210045,-0.0795 -0.09083,-0.0568 -0.147599,-0.13624 -0.05677,-0.0795 -0.05677,-0.18167 v -1.3511 h 0.544982 v 1.30001 q 0,0.0795 0.06245,0.11922 0.06245,0.0397 0.170307,0.0397 h 0.141922 q 0.06245,0 0.119215,-0.017 0.05677,-0.017 0.102184,-0.0454 0.04541,-0.0341 0.06812,-0.0681 0.02838,-0.0397 0.02838,-0.0852 z m 2.106125,0 v 0.31791 h -0.34629 v 0.9821 q 0,0.0795 0.05677,0.11922 0.06245,0.0397 0.170306,0.0397 h 0.141923 v 0.3179 h -0.249784 q -0.130568,0 -0.25546,-0.0284 -0.119215,-0.0284 -0.210045,-0.0795 -0.09083,-0.0568 -0.147599,-0.13624 -0.05677,-0.0795 -0.05677,-0.18167 v -1.03319 h -0.32926 v -0.31791 h 0.32926 v -0.40306 h 0.550659 v 0.40306 z m 2.662457,0.72097 0.783412,1.0559 h -0.573367 l -0.766381,-1.03319 v 1.03319 h -0.544982 v -2.37862 h 1.095641 q 0.130569,0 0.249784,0.0284 0.119215,0.0284 0.210045,0.0851 0.09651,0.0511 0.147599,0.13057 0.05677,0.0795 0.05677,0.18166 v 0.47118 q 0,0.10219 -0.05677,0.18166 -0.05109,0.0795 -0.141922,0.13625 -0.09083,0.0511 -0.215722,0.0795 -0.119215,0.0284 -0.244107,0.0284 z m 0.113538,-0.84586 q 0,-0.0795 -0.06245,-0.11921 -0.06245,-0.0397 -0.170307,-0.0397 h -0.437121 v 0.6869 h 0.437121 q 0.107861,0 0.170307,-0.0397 0.06245,-0.0397 0.06245,-0.11921 z"
       id="text4-3-7"
       style="font-size:4.9389px;font-family:Dhurjati;-inkscape-font-specification:'Dhurjati, Normal';fill:#ffffff;stroke-width:0.264583"
       aria-label="Out R" /><text
       xml:space="preserve"
       style="font-size:14.8514px;font-family:Uroob;-inkscape-font-specification:Uroob;fill:#ffffff;stroke-width:0.437289;fill-opacity:1"
       x="6.6470046"
       y="185.21739"
       id="text1"><tspan
         sodipodi:role="line"
         style="stroke-width:0.437291;fill:#ffffff;fill-opacity:1"
         x="6.6470046"
         y="185.21739"
         id="tspan2">sQuinth</tspan></text></g><g
     inkscape:groupmode="layer"
     id="layer2"
     inkscape:label="components"><circle
       style="display:inline;opacity:1;vector-effect:none;fill:#ff0000;fill-opacity:1;fill-rule:evenodd;stroke:none;stroke-width:1;stroke-linecap:butt;stroke-linejoin:miter;stroke-miterlimit:4;stroke-dasharray:none;stroke-dashoffset:0;stroke-opacity:1;paint-order:normal"
       id="path4954"
       cx="15.24"
       cy="46.063263"
       r="4"
       inkscape:label="P0" /><circle
       style="display:inline;vector-effect:none;fill:#ff0000;fill-opacity:1;fill-rule:evenodd;stroke:none;stroke-width:1;stroke-linecap:butt;stroke-linejoin:miter;stroke-miterlimit:4;stroke-dasharray:none;stroke-dashoffset:0;stroke-opacity:1;paint-order:normal"
       id="path4954-0"
       cx="30.48"
       cy="46.243156"
       r="4"
       inkscape:label="P1" /><circle
       style="display:inline;vector-effect:none;fill:#ff0000;fill-opacity:1;fill-rule:evenodd;stroke:none;stroke-width:1;stroke-linecap:butt;stroke-linejoin:miter;stroke-miterlimit:4;stroke-dasharray:none;stroke-dashoffset:0;stroke-opacity:1;paint-order:normal"
       id="path4954-0-9"
       cx="45.719997"
       cy="46.243156"
       r="4"
       inkscape:label="P2" /><circle
       style="display:inline;vector-effect:none;fill:#ff0000;fill-opacity:1;fill-rule:evenodd;stroke:none;stroke-width:1;stroke-linecap:butt;stroke-linejoin:miter;stroke-miterlimit:4;stroke-dasharray:none;stroke-dashoffset:0;stroke-opacity:1;paint-order:normal"
       id="path4954-0-9-3"
       cx="60.959999"
       cy="46.243156"
       r="4"
       inkscape:label="P3" /><circle
       style="display:inline;vector-effect:none;fill:#ff0000;fill-opacity:1;fill-rule:evenodd;stroke:none;stroke-width:1;stroke-linecap:butt;stroke-linejoin:miter;stroke-miterlimit:4;stroke-dasharray:none;stroke-dashoffset:0;stroke-opacity:1;paint-order:normal"
       id="path4954-0-9-3-6"
       cx="76.200005"
       cy="46.243156"
       r="4"
       inkscape:label="P4" /><circle
       style="display:inline;vector-effect:none;fill:#ff0000;fill-opacity:1;fill-rule:evenodd;stroke:none;stroke-width:1;stroke-linecap:butt;stroke-linejoin:miter;stroke-miterlimit:4;stroke-dasharray:none;stroke-dashoffset:0;stroke-opacity:1;paint-order:normal"
       id="path4954-0-9-3-6-0"
       cx="91.44001"
       cy="46.243156"
       r="4"
       inkscape:label="P5" /><circle
       style="display:inline;vector-effect:none;fill:#ff0000;fill-opacity:1;fill-rule:evenodd;stroke:none;stroke-width:1;stroke-linecap:butt;stroke-linejoin:miter;stroke-miterlimit:4;stroke-dasharray:none;stroke-dashoffset:0;stroke-opacity:1;paint-order:normal"
       id="path4954-0-9-3-6-0-6"
       cx="106.68002"
       cy="46.243156"
       r="4"
       inkscape:label="P6" /><circle
       r="4"
       cy="77.477875"
       cx="15.24"
       id="circle4956"
       style="display:inline;opacity:1;vector-effect:none;fill:#00ff00;fill-opacity:1;fill-rule:evenodd;stroke:none;stroke-width:1;stroke-linecap:butt;stroke-linejoin:miter;stroke-miterlimit:4;stroke-dasharray:none;stroke-dashoffset:0;stroke-opacity:1;paint-order:normal"
       inkscape:label="PITCH" /><circle
       r="4"
       cy="77.477875"
       cx="30.48"
       id="circle4956-6"
       style="display:inline;vector-effect:none;fill:#00ff00;fill-opacity:1;fill-rule:evenodd;stroke:none;stroke-width:1;stroke-linecap:butt;stroke-linejoin:miter;stroke-miterlimit:4;stroke-dasharray:none;stroke-dashoffset:0;stroke-opacity:1;paint-order:normal"
       inkscape:label="I1" /><circle
       r="4"
       cy="77.477875"
       cx="45.720001"
       id="circle4956-6-2"
       style="display:inline;vector-effect:none;fill:#00ff00;fill-opacity:1;fill-rule:evenodd;stroke:none;stroke-width:1;stroke-linecap:butt;stroke-linejoin:miter;stroke-miterlimit:4;stroke-dasharray:none;stroke-dashoffset:0;stroke-opacity:1;paint-order:normal"
       inkscape:label="I2" /><circle
       r="4"
       cy="77.477875"
       cx="60.959999"
       id="circle4956-6-2-9"
       style="display:inline;vector-effect:none;fill:#00ff00;fill-opacity:1;fill-rule:evenodd;stroke:none;stroke-width:1;stroke-linecap:butt;stroke-linejoin:miter;stroke-miterlimit:4;stroke-dasharray:none;stroke-dashoffset:0;stroke-opacity:1;paint-order:normal"
       inkscape:label="I3" /><circle
       r="4"
       cy="77.477875"
       cx="76.199997"
       id="circle4956-6-2-9-1"
       style="display:inline;vector-effect:none;fill:#00ff00;fill-opacity:1;fill-rule:evenodd;stroke:none;stroke-width:1;stroke-linecap:butt;stroke-linejoin:miter;stroke-miterlimit:4;stroke-dasharray:none;stroke-dashoffset:0;stroke-opacity:1;paint-order:normal"
       inkscape:label="I4" /><circle
       r="4"
       cy="77.477875"
       cx="91.439995"
       id="circle4956-6-2-9-1-2"
       style="display:inline;vector-effect:none;fill:#00ff00;fill-opacity:1;fill-rule:evenodd;stroke:none;stroke-width:1;stroke-linecap:butt;stroke-linejoin:miter;stroke-miterlimit:4;stroke-dasharray:none;stroke-dashoffset:0;stroke-opacity:1;paint-order:normal"
       inkscape:label="I5" /><circle
       r="4"
       cy="77.477875"
       cx="106.67999"
       id="circle4956-6-2-9-1-2-7"
       style="display:inline;vector-effect:none;fill:#00ff00;fill-opacity:1;fill-rule:evenodd;stroke:none;stroke-width:1;stroke-linecap:butt;stroke-linejoin:miter;stroke-miterlimit:4;stroke-dasharray:none;stroke-dashoffset:0;stroke-opacity:1;paint-order:normal"
       inkscape:label="I6" /><circle
       style="display:inline;opacity:1;vector-effect:none;fill:#0000ff;fill-opacity:1;fill-rule:evenodd;stroke:none;stroke-width:1;stroke-linecap:butt;stroke-linejoin:miter;stroke-miterlimit:4;stroke-dasharray:none;stroke-dashoffset:0;stroke-opacity:1;paint-order:normal"
       id="circle4958"
       cx="15.24"
       cy="108.71259"
       r="4"
       inkscape:label="OUT_L" /><circle
       style="display:inline;vector-effect:none;fill:#0000ff;fill-opacity:1;fill-rule:evenodd;stroke:none;stroke-width:1;stroke-linecap:butt;stroke-linejoin:miter;stroke-miterlimit:4;stroke-dasharray:none;stroke-dashoffset:0;stroke-opacity:1;paint-order:normal"
       id="circle4958-3"
       cx="30.48"
       cy="108.71259"
       r="4"
       inkscape:label="OUT_R" /><circle
       style="display:inline;vector-effect:none;fill:#0000ff;fill-opacity:1;fill-rule:evenodd;stroke:none;stroke-width:1;stroke-linecap:butt;stroke-linejoin:miter;stroke-miterlimit:4;stroke-dasharray:none;stroke-dashoffset:0;stroke-opacity:1;paint-order:normal"
       id="circle4958-3-6"
       cx="45.720001"
       cy="108.71259"
       r="4"
       inkscape:label="OUT_2" /><circle
       style="display:inline;vector-effect:none;fill:#0000ff;fill-opacity:1;fill-rule:evenodd;stroke:none;stroke-width:1;stroke-linecap:butt;stroke-linejoin:miter;stroke-miterlimit:4;stroke-dasharray:none;stroke-dashoffset:0;stroke-opacity:1;paint-order:normal"
       id="circle4958-3-6-7"
       cx="60.959999"
       cy="108.71259"
       r="4"
       inkscape:label="OUT_3" /><circle
       style="display:inline;vector-effect:none;fill:#0000ff;fill-opacity:1;fill-rule:evenodd;stroke:none;stroke-width:1;stroke-linecap:butt;stroke-linejoin:miter;stroke-miterlimit:4;stroke-dasharray:none;stroke-dashoffset:0;stroke-opacity:1;paint-order:normal"
       id="circle4958-3-6-7-5"
       cx="76.199997"
       cy="108.71259"
       r="4"
       inkscape:label="OUT_4" /><circle
       style="display:inline;vector-effect:none;fill:#0000ff;fill-opacity:1;fill-rule:evenodd;stroke:none;stroke-width:1;stroke-linecap:butt;stroke-linejoin:miter;stroke-miterlimit:4;stroke-dasharray:none;stroke-dashoffset:0;stroke-opacity:1;paint-order:normal"
       id="circle4958-3-6-7-5-3"
       cx="91.439995"
       cy="108.71259"
       r="4"
       inkscape:label="OUT_5" /><circle
       style="display:inline;vector-effect:none;fill:#0000ff;fill-opacity:1;fill-rule:evenodd;stroke:none;stroke-width:1;stroke-linecap:butt;stroke-linejoin:miter;stroke-miterlimit:4;stroke-dasharray:none;stroke-dashoffset:0;stroke-opacity:1;paint-order:normal"
       id="circle4958-3-6-7-5-3-5"
       cx="106.67999"
       cy="108.71259"
       r="4"
       inkscape:label="OUT_6" /></g></svg>
