<?xml version="1.0" encoding="UTF-8" standalone="no"?>
<!-- Created with Inkscape (http://www.inkscape.org/) -->

<svg
   width="187.96001mm"
   height="128.5mm"
   viewBox="0 0 187.96003 128.50002"
   version="1.1"
   id="svg8"
   inkscape:version="1.3 (0e150ed, 2023-07-21)"
   sodipodi:docname="sQuinth.svg"
   xml:space="preserve"
   xmlns:inkscape="http://www.inkscape.org/namespaces/inkscape"
   xmlns:sodipodi="http://sodipodi.sourceforge.net/DTD/sodipodi-0.dtd"
   xmlns:xlink="http://www.w3.org/1999/xlink"
   xmlns="http://www.w3.org/2000/svg"
   xmlns:svg="http://www.w3.org/2000/svg"
   xmlns:rdf="http://www.w3.org/1999/02/22-rdf-syntax-ns#"
   xmlns:cc="http://creativecommons.org/ns#"
   xmlns:dc="http://purl.org/dc/elements/1.1/"><defs
     id="defs2" /><sodipodi:namedview
     id="base"
     pagecolor="#ffffff"
     bordercolor="#666666"
     borderopacity="1.0"
     inkscape:pageopacity="0.0"
     inkscape:pageshadow="2"
     inkscape:zoom="1.2525001"
     inkscape:cx="268.66265"
     inkscape:cy="253.09379"
     inkscape:document-units="mm"
     inkscape:current-layer="layer1"
     showgrid="false"
     units="mm"
     inkscape:snap-bbox="true"
     inkscape:snap-page="true"
     inkscape:bbox-nodes="false"
     inkscape:snap-bbox-edge-midpoints="false"
     inkscape:window-width="1920"
     inkscape:window-height="1016"
     inkscape:window-x="0"
     inkscape:window-y="27"
     inkscape:window-maximized="1"
     inkscape:snap-bbox-midpoints="true"
     inkscape:snap-nodes="false"
     inkscape:showpageshadow="2"
     inkscape:pagecheckerboard="0"
     inkscape:deskcolor="#d1d1d1" /><metadata
     id="metadata5"><rdf:RDF><cc:Work
         rdf:about=""><dc:format>image/svg+xml</dc:format><dc:type
           rdf:resource="http://purl.org/dc/dcmitype/StillImage" /></cc:Work></rdf:RDF></metadata><g
     inkscape:label="Layer 1"
     inkscape:groupmode="layer"
     id="layer1"
     transform="translate(0,-168.49998)"
     style="display:inline"><image
       width="187.94188"
       height="128.47523"
       preserveAspectRatio="none"
       xlink:href="sQuinth.png"
       id="image1"
       x="0.018127441"
       y="168.51237" /><path
       style="font-size:14.8514px;font-family:Uroob;-inkscape-font-specification:Uroob;display:inline;fill:#ffffff;stroke-width:0.437291"
       d="m 143.99504,179.28838 q 0.0145,-0.40609 -0.50036,-0.40609 h -0.90646 q -0.62364,0.007 -0.56563,0.84844 0.0145,0.21755 0.0145,0.39159 0,0.54388 0.55113,0.54388 h 1.26904 q 0.65265,0 1.05149,0.4641 0.40609,0.46411 0.40609,1.10951 v 0.97172 q 0,0.66715 -0.4351,1.14576 -0.4351,0.47136 -1.095,0.47136 h -1.59537 q -0.71066,0 -1.1095,-0.45685 -0.40609,-0.45686 -0.40609,-1.16752 h 1.24728 q -0.0145,0.25381 0.12328,0.36258 0.14503,0.10152 0.37709,0.10152 h 1.05149 q 0.55112,0 0.55112,-0.54387 v -0.72517 q 0,-0.56563 -0.55112,-0.56563 h -1.19653 q -0.6599,0 -1.095,-0.41334 -0.4351,-0.41334 -0.4351,-1.06599 v -1.05875 q 0,-0.65265 0.4061,-1.11675 0.40609,-0.46411 1.05149,-0.46411 h 1.5591 q 0.66716,0 1.07325,0.44235 0.40609,0.44235 0.40609,1.13126 z m 7.3967,5.06891 q -0.52212,0.46411 -1.24729,0.46411 h -1.45033 q -0.77593,0 -1.34156,-0.52212 -0.57288,-0.52212 -0.57288,-1.2908 v -5.65629 q 0,-0.76143 0.56563,-1.2908 0.56563,-0.52937 1.34881,-0.52937 h 1.45033 q 0.75418,0 1.31255,0.52937 0.55838,0.52937 0.55838,1.2908 v 5.65629 q 0,0.1813 -0.029,0.31908 l 0.94997,1.03698 v 0.4206 l -1.01523,-0.0508 z m -0.68891,-2.06672 v -4.69908 q 0,-0.57288 -0.4061,-0.83394 -0.13053,-0.087 -0.31182,-0.0798 h -1.20377 q -0.31183,0 -0.50037,0.27557 -0.18854,0.27556 -0.18854,0.63814 v 5.17769 q 0,0.57288 0.38434,0.82669 0.13053,0.087 0.30457,0.087 h 1.20377 q 0.17404,0 0.33358,-0.10153 -0.96447,-0.64539 -1.5301,-1.24003 -0.10153,-0.11603 -0.10153,-0.19579 0,-0.0798 0.0725,-0.20305 0.0798,-0.13053 0.20305,-0.13778 l 1.23278,-0.0218 q 0.12328,0.12328 0.25381,0.25381 0.13053,0.12328 0.25381,0.25381 z m 7.64325,2.52358 h -1.10225 v -0.34808 q -0.29007,0.29006 -0.42785,0.31907 -0.13778,0.029 -0.27556,0.029 h -1.45034 q -0.63089,0 -1.05149,-0.42785 -0.42059,-0.42785 -0.42059,-1.066 v -5.56927 h 1.24003 v 5.32997 q 0,0.27556 0.15229,0.47136 0.15953,0.18854 0.45685,0.18854 h 1.05874 q 0.29007,0 0.4351,-0.30457 0.14504,-0.30457 0.14504,-0.6454 v -5.0399 h 1.24003 z m 1.35606,-9.1806 q 0.79768,0 0.79768,0.81218 0,0.81944 -0.79768,0.81944 -0.39159,0 -0.60189,-0.2103 -0.2103,-0.21755 -0.2103,-0.60914 0,-0.39159 0.2103,-0.60189 0.2103,-0.21029 0.60189,-0.21029 z m 0.60914,9.15159 h -1.24729 v -7.04861 h 1.24729 z m 1.81292,-6.61351 q 0.42059,-0.4206 0.84844,-0.4206 h 1.23278 q 0.6309,0 1.08775,0.42785 0.45686,0.42785 0.45686,1.06599 v 5.56928 h -1.24004 v -5.32997 q 0,-0.27557 -0.15954,-0.46411 -0.15228,-0.19579 -0.4496,-0.19579 h -1.05874 q -0.42785,-0.007 -0.54387,0.52937 -0.029,0.14503 -0.0363,0.27556 v 5.18494 h -1.24004 l -0.007,-7.06312 h 1.10951 z m 6.06964,5.14867 q 0,0.53663 0.58013,0.53663 0.58738,0 0.65265,-0.60914 h 0.26831 v 1.31255 q -0.47861,0.4351 -1.11676,0.4351 -1.19652,0 -1.57361,-0.89921 -0.12328,-0.29006 -0.12328,-0.68891 v -4.34374 h -0.52937 v -1.095 h 0.52937 v -1.38507 h 1.31256 v 1.38507 h 1.00072 v 1.095 h -1.00072 z m 6.97609,1.49385 h -1.24003 v -5.32997 q 0,-0.27557 -0.15954,-0.46411 -0.15228,-0.19579 -0.4496,-0.19579 h -0.91371 q -0.29732,0 -0.50762,0.2248 -0.21755,0.2248 -0.21755,0.50761 v 5.25746 h -1.24003 l -0.007,-9.23862 h 1.25454 v 2.42931 q 0.26831,-0.25381 0.63089,-0.25381 h 1.16027 q 0.63814,0 1.16751,0.42785 0.52212,0.42785 0.52212,1.06599 z"
       id="text1"
       aria-label="sQuinth" /></g><g
     inkscape:groupmode="layer"
     id="layer2"
     inkscape:label="components"><circle
       r="4"
       cy="31.680901"
       cx="22.392975"
       id="circle4956"
       style="display:inline;opacity:1;vector-effect:none;fill:#00ff00;fill-opacity:1;fill-rule:evenodd;stroke:none;stroke-width:1;stroke-linecap:butt;stroke-linejoin:miter;stroke-miterlimit:4;stroke-dasharray:none;stroke-dashoffset:0;stroke-opacity:1;paint-order:normal"
       inkscape:label="PITCH" /><circle
       r="4"
       cy="20.495461"
       cx="31.82633"
       id="circle4956-6"
       style="display:inline;vector-effect:none;fill:#00ff00;fill-opacity:1;fill-rule:evenodd;stroke:none;stroke-width:1;stroke-linecap:butt;stroke-linejoin:miter;stroke-miterlimit:4;stroke-dasharray:none;stroke-dashoffset:0;stroke-opacity:1;paint-order:normal"
       inkscape:label="I1" /><circle
       r="4"
       cy="23.484535"
       cx="46.391987"
       id="circle4956-6-2"
       style="display:inline;vector-effect:none;fill:#00ff00;fill-opacity:1;fill-rule:evenodd;stroke:none;stroke-width:1;stroke-linecap:butt;stroke-linejoin:miter;stroke-miterlimit:4;stroke-dasharray:none;stroke-dashoffset:0;stroke-opacity:1;paint-order:normal"
       inkscape:label="I2" /><circle
       r="4"
       cy="13.894433"
       cx="54.393684"
       id="circle4956-6-2-9"
       style="display:inline;vector-effect:none;fill:#00ff00;fill-opacity:1;fill-rule:evenodd;stroke:none;stroke-width:1;stroke-linecap:butt;stroke-linejoin:miter;stroke-miterlimit:4;stroke-dasharray:none;stroke-dashoffset:0;stroke-opacity:1;paint-order:normal"
       inkscape:label="I3" /><circle
       style="display:inline;opacity:1;vector-effect:none;fill:#0000ff;fill-opacity:1;fill-rule:evenodd;stroke:none;stroke-width:1;stroke-linecap:butt;stroke-linejoin:miter;stroke-miterlimit:4;stroke-dasharray:none;stroke-dashoffset:0;stroke-opacity:1;paint-order:normal"
       id="circle4958"
       cx="126.48536"
       cy="90.871391"
       r="4"
       inkscape:label="OUT_L" /><circle
       style="display:inline;vector-effect:none;fill:#0000ff;fill-opacity:1;fill-rule:evenodd;stroke:none;stroke-width:1;stroke-linecap:butt;stroke-linejoin:miter;stroke-miterlimit:4;stroke-dasharray:none;stroke-dashoffset:0;stroke-opacity:1;paint-order:normal"
       id="circle4958-3"
       cx="145.15631"
       cy="89.947815"
       r="4"
       inkscape:label="OUT_R" /></g></svg>
